<svg width="37" height="42" viewBox="0 0 37 42" fill="none" xmlns="http://www.w3.org/2000/svg">
<path d="M17.6906 25.9374C17.2452 27.0376 17 28.2401 17 29.4999C17 34.7466 21.2533 38.9999 26.5 38.9999C31.7467 38.9999 36 34.7466 36 29.4999C36 24.2532 31.7467 19.9999 26.5 19.9999C25.2402 19.9999 24.0376 20.2452 22.9375 20.6905" stroke="#0AB285" stroke-width="2" stroke-linecap="round"/>
<circle cx="26.5" cy="26.6499" r="2.8" stroke="#0AB285" stroke-width="2"/>
<path d="M28.4086 31.4078C30.8553 31.5318 32.9141 33.1221 33.7269 35.317L32.0023 36.525C31.6031 34.7369 30.0083 33.4001 28.1 33.4H24.8998C22.7266 33.4 20.9587 35.1331 20.9017 37.2925L20.3246 37.1002L19.1478 35.688C19.8847 33.2085 22.181 31.4 24.8998 31.4H28.1L28.4086 31.4078Z" fill="#0AB285"/>
<rect x="6" y="7" width="12" height="2" rx="1" fill="#452A7A"/>
<rect x="6" y="11" width="12" height="2" rx="1" fill="#452A7A"/>
<rect x="6" y="15" width="7" height="2" rx="1" fill="#452A7A"/>
<path d="M22.9999 2C23.5522 2 23.9999 1.55228 23.9999 1C23.9999 0.447715 23.5522 0 22.9999 0V1V2ZM1 31H2V4H1H0V31H1ZM1 4H2C2 3.32953 2.11748 2.81405 2.33205 2.4922C2.49891 2.24191 2.79131 2 3.5 2V1V0C2.20869 0 1.25109 0.508094 0.66795 1.3828C0.132518 2.18595 0 3.17047 0 4H1ZM3.5 1V2H22.9999V1V0H3.5V1Z" fill="#452A7A"/>
<path d="M17.9999 40C18.5522 40 18.9999 40.4477 18.9999 41C18.9999 41.5523 18.5522 42 17.9999 42V41V40ZM1 31H2V38H1H0V31H1ZM1 38H2C2 38.6705 2.11748 39.1859 2.33205 39.5078C2.49891 39.7581 2.79131 40 3.5 40V41V42C2.20869 42 1.25109 41.4919 0.66795 40.6172C0.132518 39.8141 0 38.8295 0 38H1ZM3.5 41V40H17.9999V41V42H3.5V41Z" fill="#452A7A"/>
<path d="M23 1V8C23 9.5 23.5 11 25.5 11C28.3 11 31.1666 11 32.9999 11" stroke="#452A7A" stroke-width="2" stroke-linecap="round"/>
<path d="M33 17L33 11" stroke="#452A7A" stroke-width="2" stroke-linecap="round"/>
<path d="M33 11L22.9999 1" stroke="#452A7A" stroke-width="2" stroke-linecap="round"/>
</svg>
