<svg width="37" height="42" viewBox="0 0 37 42" fill="none" xmlns="http://www.w3.org/2000/svg">
<path d="M17.6906 25.9374C17.2452 27.0376 17 28.2401 17 29.4999C17 34.7466 21.2533 38.9999 26.5 38.9999C31.7467 38.9999 36 34.7466 36 29.4999C36 24.2532 31.7467 19.9999 26.5 19.9999C25.2402 19.9999 24.0376 20.2452 22.9375 20.6905" stroke="#0AB285" stroke-width="2" stroke-linecap="round"/>
<path d="M30.7822 26.1015C30.5381 25.9365 30.1884 25.9768 30.0007 26.1917L25.1407 31.7633L22.9543 29.8084C22.7383 29.6153 22.3856 29.6129 22.1662 29.8031C21.947 29.9932 21.9443 30.304 22.1602 30.4971L24.7957 32.8536C24.9007 32.9475 25.0438 32.9999 25.1927 32.9999C25.204 32.9999 25.2155 32.9996 25.2268 32.999C25.3877 32.9903 25.5365 32.9207 25.6346 32.8082L30.8846 26.7896C31.0721 26.5747 31.0263 26.2666 30.7822 26.1015Z" fill="#0AB285" stroke="#0AB285"/>
<path d="M22.9999 2C23.5522 2 23.9999 1.55228 23.9999 1C23.9999 0.447715 23.5522 0 22.9999 0V1V2ZM1 31H2V4H1H0V31H1ZM1 4H2C2 3.32953 2.11748 2.81405 2.33205 2.4922C2.49891 2.24191 2.79131 2 3.5 2V1V0C2.20869 0 1.25109 0.508094 0.66795 1.3828C0.132518 2.18595 0 3.17047 0 4H1ZM3.5 1V2H22.9999V1V0H3.5V1Z" fill="#452A7A"/>
<path d="M34 17V4C34 2.5 33.5 1 31.5 1C28.7 1 13.8334 1 12.0001 1" stroke="#452A7A" stroke-width="2" stroke-linecap="round"/>
<path d="M17.9999 40C18.5522 40 18.9999 40.4477 18.9999 41C18.9999 41.5523 18.5522 42 17.9999 42V41V40ZM1 31H2V38H1H0V31H1ZM1 38H2C2 38.6705 2.11748 39.1859 2.33205 39.5078C2.49891 39.7581 2.79131 40 3.5 40V41V42C2.20869 42 1.25109 41.4919 0.66795 40.6172C0.132518 39.8141 0 38.8295 0 38H1ZM3.5 41V40H17.9999V41V42H3.5V41Z" fill="#452A7A"/>
<path d="M1 4.99994V6.99994C1.48485 9.99994 4.97576 11.9999 9.24242 11.9999C13.5091 11.9999 16.1919 11.9999 17 11.9999" stroke="#452A7A" stroke-width="2"/>
<path d="M34 4.99994V6.99994C33.4848 9.99994 29.7758 11.9999 25.2424 11.9999C20.7091 11.9999 17.8586 11.9999 17 11.9999" stroke="#452A7A" stroke-width="2"/>
<circle cx="17.5" cy="7.49994" r="1.5" stroke="#452A7A" stroke-width="2"/>
<circle cx="17.5" cy="16.4999" r="1.5" stroke="#452A7A" stroke-width="2"/>
<rect x="18" y="8.99994" width="6" height="1" rx="0.5" transform="rotate(90 18 8.99994)" fill="#452A7A" stroke="#452A7A"/>
</svg>
