<svg width="37" height="42" viewBox="0 0 37 42" fill="none" xmlns="http://www.w3.org/2000/svg">
<path d="M27.8924 18.8991C27.5199 18.2324 26.7941 17.8181 25.9997 17.8181C25.2054 17.8181 24.4795 18.2324 24.107 18.9001L16.2513 33.0113C16.077 33.3212 15.9907 33.669 16.0008 34.0203C16.0109 34.3715 16.1172 34.7143 16.3091 35.0146C16.4983 35.3163 16.7669 35.5658 17.0885 35.7386C17.4102 35.9114 17.7736 36.0015 18.143 35.9999H33.8564C34.6144 35.9999 35.3006 35.6314 35.6913 35.0146C35.883 34.7142 35.9891 34.3715 35.9992 34.0202C36.0093 33.669 35.9232 33.3213 35.7492 33.0113L27.8924 18.8991Z" stroke="#0AB285" stroke-width="2"/>
<path d="M25.8272 31.8205C26.22 31.8205 26.5518 32.1519 26.5518 32.5558C26.5516 32.9474 26.2198 33.2902 25.8272 33.2902C25.4102 33.2901 25.0912 32.9473 25.0909 32.5558C25.0909 32.1519 25.41 31.8206 25.8272 31.8205ZM25.8155 23.2726C26.1713 23.2728 26.4659 23.4812 26.4659 23.8605C26.4659 25.6356 26.3058 27.8394 26.3058 29.6144C26.3055 29.8834 26.0118 30.0059 25.8155 30.006C25.5456 30.006 25.3119 29.8835 25.3116 29.6144C25.3116 27.8394 25.1651 25.6356 25.1651 23.8605C25.1651 23.481 25.4473 23.2726 25.8155 23.2726Z" fill="#0AB285"/>
<path d="M25.8272 31.8205V31.5705H25.8272L25.8272 31.8205ZM26.5518 32.5558L26.8018 32.556V32.5558H26.5518ZM25.8272 33.2902L25.8272 33.5402H25.8272V33.2902ZM25.0909 32.5558H24.8409L24.8409 32.556L25.0909 32.5558ZM25.8155 23.2726L25.8156 23.0226H25.8155V23.2726ZM26.4659 23.8605L26.7159 23.8605V23.8605H26.4659ZM26.3058 29.6144L26.5558 29.6147V29.6144H26.3058ZM25.8155 30.006V30.256H25.8157L25.8155 30.006ZM25.3116 29.6144H25.0616L25.0616 29.6147L25.3116 29.6144ZM25.1651 23.8605H24.9151V23.8605L25.1651 23.8605ZM25.8272 31.8205V32.0705C26.0797 32.0705 26.3018 32.2876 26.3018 32.5558H26.5518H26.8018C26.8018 32.0161 26.3603 31.5705 25.8272 31.5705V31.8205ZM26.5518 32.5558L26.3018 32.5557C26.3017 32.814 26.0771 33.0402 25.8272 33.0402V33.2902V33.5402C26.3626 33.5402 26.8015 33.0808 26.8018 32.556L26.5518 32.5558ZM25.8272 33.2902L25.8273 33.0402C25.5531 33.0402 25.3411 32.8141 25.3409 32.5557L25.0909 32.5558L24.8409 32.556C24.8413 33.0805 25.2673 33.5401 25.8272 33.5402L25.8272 33.2902ZM25.0909 32.5558H25.3409C25.3409 32.2875 25.5506 32.0706 25.8273 32.0705L25.8272 31.8205L25.8272 31.5705C25.2695 31.5706 24.8409 32.0163 24.8409 32.5558H25.0909ZM25.8155 23.2726L25.8154 23.5226C25.9467 23.5227 26.0486 23.5612 26.113 23.6156C26.1725 23.6657 26.2159 23.7415 26.2159 23.8605H26.4659H26.7159C26.7159 23.6001 26.612 23.3821 26.4352 23.2332C26.2634 23.0884 26.0401 23.0227 25.8156 23.0226L25.8155 23.2726ZM26.4659 23.8605L26.2159 23.8605C26.2159 24.7421 26.1761 25.7315 26.136 26.7274C26.096 27.7209 26.0558 28.7209 26.0558 29.6144H26.3058H26.5558C26.5558 28.7329 26.5955 27.7435 26.6356 26.7476C26.6756 25.7541 26.7159 24.7541 26.7159 23.8605L26.4659 23.8605ZM26.3058 29.6144L26.0558 29.6142C26.0557 29.643 26.0448 29.6707 25.9971 29.702C25.9435 29.7372 25.8695 29.756 25.8154 29.756L25.8155 30.006L25.8157 30.256C25.9578 30.256 26.1289 30.2135 26.2713 30.1201C26.4195 30.0229 26.5555 29.8549 26.5558 29.6147L26.3058 29.6144ZM25.8155 30.006V29.756C25.7136 29.756 25.643 29.7322 25.6054 29.7061C25.5883 29.6941 25.579 29.6826 25.5734 29.672C25.5679 29.6617 25.5616 29.6443 25.5616 29.6142L25.3116 29.6144L25.0616 29.6147C25.0618 29.8332 25.1622 30.0066 25.3195 30.1162C25.4664 30.2186 25.6475 30.256 25.8155 30.256V30.006ZM25.3116 29.6144H25.5616C25.5616 28.7214 25.5248 27.7219 25.4882 26.7283C25.4515 25.7324 25.4151 24.7426 25.4151 23.8605L25.1651 23.8605L24.9151 23.8605C24.9151 24.7536 24.952 25.7531 24.9885 26.7467C25.0252 27.7426 25.0616 28.7324 25.0616 29.6144H25.3116ZM25.1651 23.8605H25.4151C25.4151 23.7379 25.458 23.6627 25.5146 23.6144C25.576 23.562 25.6765 23.5226 25.8155 23.5226V23.2726V23.0226C25.5864 23.0226 25.3616 23.0875 25.1899 23.2342C25.0133 23.3849 24.9151 23.6036 24.9151 23.8605H25.1651Z" fill="#0AB285"/>
<rect x="6" y="7" width="12" height="2" rx="1" fill="#452A7A"/>
<rect x="6" y="12" width="12" height="2" rx="1" fill="#452A7A"/>
<rect x="6" y="17" width="7" height="2" rx="1" fill="#452A7A"/>
<path d="M22.9999 2C23.5522 2 23.9999 1.55228 23.9999 1C23.9999 0.447715 23.5522 0 22.9999 0V1V2ZM1 31H2V4H1H0V31H1ZM1 4H2C2 3.32953 2.11748 2.81405 2.33205 2.4922C2.49891 2.24191 2.79131 2 3.5 2V1V0C2.20869 0 1.25109 0.508094 0.66795 1.3828C0.132518 2.18595 0 3.17047 0 4H1ZM3.5 1V2H22.9999V1V0H3.5V1Z" fill="#452A7A"/>
<path d="M17.9999 40C18.5522 40 18.9999 40.4477 18.9999 41C18.9999 41.5523 18.5522 42 17.9999 42V41V40ZM1 31H2V38H1H0V31H1ZM1 38H2C2 38.6705 2.11748 39.1859 2.33205 39.5078C2.49891 39.7581 2.79131 40 3.5 40V41V42C2.20869 42 1.25109 41.4919 0.66795 40.6172C0.132518 39.8141 0 38.8295 0 38H1ZM3.5 41V40H17.9999V41V42H3.5V41Z" fill="#452A7A"/>
<path d="M23 1V8C23 9.5 23.5 11 25.5 11C28.3 11 31.1666 11 32.9999 11" stroke="#452A7A" stroke-width="2" stroke-linecap="round"/>
<path d="M33 18L33 11" stroke="#452A7A" stroke-width="2" stroke-linecap="round"/>
<path d="M33 11L22.9999 1" stroke="#452A7A" stroke-width="2" stroke-linecap="round"/>
</svg>
