<svg width="37" height="42" viewBox="0 0 37 42" fill="none" xmlns="http://www.w3.org/2000/svg">
<rect y="8" width="5" height="2" rx="1" fill="#452A7A"/>
<rect x="7" y="8" width="29" height="2" rx="1" fill="#452A7A"/>
<rect x="10" y="4" width="2" height="2" rx="1" fill="#452A7A"/>
<rect x="7" y="4" width="2" height="2" rx="1" fill="#452A7A"/>
<rect x="4" y="4" width="2" height="2" rx="1" fill="#452A7A"/>
<path d="M22.9999 2C23.5522 2 23.9999 1.55228 23.9999 1C23.9999 0.447715 23.5522 0 22.9999 0V1V2ZM1 31H2V4H1H0V31H1ZM1 4H2C2 3.32953 2.11748 2.81405 2.33205 2.4922C2.49891 2.24191 2.79131 2 3.5 2V1V0C2.20869 0 1.25109 0.508094 0.66795 1.3828C0.132518 2.18595 0 3.17047 0 4H1ZM3.5 1V2H22.9999V1V0H3.5V1Z" fill="#452A7A"/>
<path d="M14.0001 2C13.4478 2 13.0001 1.55228 13.0001 1C13.0001 0.447715 13.4478 0 14.0001 0V1V2ZM36 31H35V4H36H37V31H36ZM36 4H35C35 3.32953 34.8825 2.81405 34.6679 2.4922C34.5011 2.24191 34.2087 2 33.5 2V1V0C34.7913 0 35.7489 0.508094 36.3321 1.3828C36.8675 2.18595 37 3.17047 37 4H36ZM33.5 1V2H14.0001V1V0H33.5V1Z" fill="#452A7A"/>
<path d="M17.9999 40C18.5522 40 18.9999 40.4477 18.9999 41C18.9999 41.5523 18.5522 42 17.9999 42V41V40ZM1 31H2V38H1H0V31H1ZM1 38H2C2 38.6705 2.11748 39.1859 2.33205 39.5078C2.49891 39.7581 2.79131 40 3.5 40V41V42C2.20869 42 1.25109 41.4919 0.66795 40.6172C0.132518 39.8141 0 38.8295 0 38H1ZM3.5 41V40H17.9999V41V42H3.5V41Z" fill="#452A7A"/>
<path d="M16.0001 40C15.4478 40 15.0001 40.4477 15.0001 41C15.0001 41.5523 15.4478 42 16.0001 42V41V40ZM36 31H35V38H36H37V31H36ZM36 38H35C35 38.6705 34.8825 39.1859 34.6679 39.5078C34.5011 39.7581 34.2087 40 33.5 40V41V42C34.7913 42 35.7489 41.4919 36.3321 40.6172C36.8675 39.8141 37 38.8295 37 38H36ZM33.5 41V40H16.0001V41V42H33.5V41Z" fill="#452A7A"/>
<path d="M9.69055 20.9375C9.24523 22.0376 9 23.2402 9 24.5C9 29.7467 13.2533 34 18.5 34C23.7467 34 28 29.7467 28 24.5C28 19.2533 23.7467 15 18.5 15C17.2402 15 16.0376 15.2452 14.9375 15.6906" stroke="#0AB285" stroke-width="2" stroke-linecap="round"/>
<circle cx="18.5" cy="21.65" r="2.8" stroke="#0AB285" stroke-width="2"/>
<path d="M20.4086 26.4078C22.8553 26.5319 24.9141 28.1221 25.7269 30.317L24.0023 31.525C23.6031 29.737 22.0083 28.4001 20.1 28.4H16.8998C14.7266 28.4001 12.9587 30.1332 12.9017 32.2926L12.3246 32.1002L11.1478 30.6881C11.8847 28.2085 14.181 26.4001 16.8998 26.4H20.1L20.4086 26.4078Z" fill="#0AB285"/>
</svg>
