<svg width="201" height="50" viewBox="0 0 201 50" fill="none" xmlns="http://www.w3.org/2000/svg">
<rect width="201" height="50" rx="6" fill="#0AB285"/>
<path d="M56.7059 18.4382C57.8792 18.4382 58.8032 18.7756 59.4779 19.4502C60.1672 20.1102 60.5119 21.1516 60.5119 22.5742V31.0002H57.3219H50.4139H49.7539V18.4382H52.9219H56.7059ZM57.3219 28.6242V22.4202C57.3219 21.3496 56.8306 20.8142 55.8479 20.8142H52.9219V28.6242H57.3219ZM62.9494 21.0122L62.6854 18.4382H65.8534L66.1174 21.0122V24.4442L66.0954 25.8302L62.9494 26.3802V21.0122ZM68.4668 28.6242H72.9108C73.7614 28.6242 74.4214 28.3529 74.8908 27.8102C75.3748 27.2529 75.6168 26.4902 75.6168 25.5222V23.8942C75.6168 22.9702 75.4041 22.2296 74.9788 21.6722C74.5681 21.1002 73.9594 20.8142 73.1528 20.8142H71.5688L71.1728 22.6842C71.1288 22.8749 71.1068 23.0582 71.1068 23.2342C71.1068 23.6009 71.2168 23.8869 71.4368 24.0922C71.6568 24.2829 72.0161 24.4296 72.5148 24.5322L72.0088 26.5122C70.7034 26.4829 69.7574 26.1896 69.1708 25.6322C68.5841 25.0749 68.2908 24.3196 68.2908 23.3662C68.2908 23.0142 68.3201 22.6916 68.3788 22.3982L69.2588 18.4382H73.9008C75.4261 18.4382 76.6214 18.9442 77.4868 19.9562C78.3521 20.9682 78.7848 22.3322 78.7848 24.0482V25.3682C78.7848 27.1282 78.3228 28.5069 77.3988 29.5042C76.4748 30.5016 75.2281 31.0002 73.6588 31.0002H68.4668V28.6242ZM91.8009 23.7402C91.8889 26.3216 91.0822 28.1916 89.3809 29.3502C87.6795 30.4942 85.2009 31.1176 81.9449 31.2202L80.7349 20.8142L80.4269 18.4382H87.1809C88.6182 18.4382 89.7329 18.8489 90.5249 19.6702C91.3169 20.4769 91.7349 21.5916 91.7789 23.0142L91.8009 23.7402ZM84.7169 28.4042C85.7582 28.3309 86.5649 28.1182 87.1369 27.7662C87.7235 27.3996 88.1269 26.8936 88.3469 26.2482C88.5815 25.5882 88.6842 24.7302 88.6549 23.6742V23.0142C88.6549 22.3396 88.5009 21.8042 88.1929 21.4082C87.8849 21.0122 87.4669 20.8142 86.9389 20.8142H83.9029L84.7169 28.4042ZM94.2092 21.0122L93.9452 18.4382H97.1132L97.3772 21.0122V31.0002H94.2092V21.0122ZM99.4185 28.6242H102.631V22.2662C102.631 21.7382 102.528 21.3642 102.323 21.1442C102.132 20.9242 101.831 20.7849 101.421 20.7262L99.8805 20.5062L100.277 18.1742L103.027 18.5262C103.921 18.6436 104.603 19.0249 105.073 19.6702C105.557 20.3156 105.799 21.1516 105.799 22.1782V31.0002H99.4185V28.6242ZM119.462 18.4382C120.635 18.4382 121.559 18.7756 122.234 19.4502C122.923 20.1102 123.268 21.1516 123.268 22.5742V31.0002H120.078H113.17H112.51V18.4382H115.678H119.462ZM120.078 28.6242V22.4202C120.078 21.3496 119.586 20.8142 118.604 20.8142H115.678V28.6242H120.078ZM125.705 21.0122L125.441 18.4382H128.609L128.873 21.0122V24.4442L128.851 25.8302L125.705 26.3802V21.0122ZM130.937 18.4382H134.127L135.205 28.4042C136.73 28.2576 137.815 27.8102 138.461 27.0622C139.106 26.2996 139.414 25.2216 139.385 23.8282V23.1462C139.385 22.4862 139.201 21.9289 138.835 21.4742C138.483 21.0049 137.947 20.7482 137.229 20.7042L136.151 20.6382L136.393 18.1962L137.735 18.2622C139.099 18.3356 140.213 18.7609 141.079 19.5382C141.959 20.3009 142.421 21.3936 142.465 22.8162L142.487 23.4322C142.575 26.0136 141.739 27.9276 139.979 29.1742C138.233 30.4062 135.711 31.0882 132.411 31.2202L130.937 18.4382ZM149.435 22.4202C149.435 21.3496 148.943 20.8142 147.961 20.8142H143.671V18.4382H148.819C149.992 18.4382 150.916 18.7756 151.591 19.4502C152.28 20.1102 152.625 21.1516 152.625 22.5742V31.0002H149.435V22.4202ZM154.963 28.6242H159.407C160.258 28.6242 160.918 28.3529 161.387 27.8102C161.871 27.2529 162.113 26.4902 162.113 25.5222V23.8942C162.113 22.9702 161.9 22.2296 161.475 21.6722C161.064 21.1002 160.456 20.8142 159.649 20.8142H158.065L157.669 22.6842C157.625 22.8749 157.603 23.0582 157.603 23.2342C157.603 23.6009 157.713 23.8869 157.933 24.0922C158.153 24.2829 158.512 24.4296 159.011 24.5322L158.505 26.5122C157.2 26.4829 156.254 26.1896 155.667 25.6322C155.08 25.0749 154.787 24.3196 154.787 23.3662C154.787 23.0142 154.816 22.6916 154.875 22.3982L155.755 18.4382H160.397C161.922 18.4382 163.118 18.9442 163.983 19.9562C164.848 20.9682 165.281 22.3322 165.281 24.0482V25.3682C165.281 27.1282 164.819 28.5069 163.895 29.5042C162.971 30.5016 161.724 31.0002 160.155 31.0002H154.963V28.6242ZM176.295 18.4382V21.0562L172.335 31.0002H169.167L173.105 20.8142H166.725V15.2262H169.585V18.4382H176.295Z" fill="white"/>
<path d="M33 29.4725L28.0553 24.5L33 19.5275L31.4777 18L25 24.5L31.4777 31L33 29.4725Z" fill="white"/>
</svg>
