<svg width="20" height="20" viewBox="0 0 20 20" fill="none" xmlns="http://www.w3.org/2000/svg">
<path d="M15.8821 13.9762H14.8783L14.5226 13.6332C15.7677 12.1847 16.5174 10.3043 16.5174 8.25869C16.5174 3.69735 12.82 0 8.25869 0C3.69735 0 0 3.69735 0 8.25869C0 12.82 3.69735 16.5174 8.25869 16.5174C10.3043 16.5174 12.1847 15.7677 13.6332 14.5226L13.9762 14.8783V15.8821L18.1069 20L20 18.1069L15.8821 13.9762ZM8.25869 13.9762C5.09498 13.9762 2.54113 11.4224 2.54113 8.25869C2.54113 5.09498 5.09498 2.54113 8.25869 2.54113C11.4224 2.54113 13.9762 5.09498 13.9762 8.25869C13.9762 11.4224 11.4224 13.9762 8.25869 13.9762Z" fill="#452A7A"/>
</svg>
