<svg width="34" height="34" viewBox="0 0 34 34" fill="none" xmlns="http://www.w3.org/2000/svg">
<path d="M17 0C26.3888 0 34 7.61116 34 17C34 20.5444 32.9139 23.8385 31.0566 26.5635C30.7455 27.0196 30.1232 27.1371 29.667 26.8262C29.2109 26.515 29.0933 25.8928 29.4043 25.4365C31.0423 23.0331 32 20.1299 32 17C32 8.71573 25.2843 2 17 2C8.71573 2 2 8.71573 2 17C2 25.2843 8.71573 32 17 32C20.1299 32 23.0331 31.0423 25.4365 29.4043C25.8928 29.0933 26.515 29.2109 26.8262 29.667C27.1371 30.1232 27.0196 30.7455 26.5635 31.0566C23.8385 32.9139 20.5444 34 17 34C7.61116 34 0 26.3888 0 17C0 7.61116 7.61116 0 17 0ZM17 4C24.1797 4 30 9.8203 30 17C30 24.1797 24.1797 30 17 30C9.8203 30 4 24.1797 4 17C4 15.2779 4.33541 13.6318 4.94531 12.125C5.1525 11.6132 5.73521 11.3662 6.24707 11.5732C6.75899 11.7805 7.00602 12.3631 6.79883 12.875C6.28375 14.1475 6 15.5394 6 17C6 19.0457 6.56044 20.9598 7.5332 22.6006C8.81983 21.6729 10.3765 21.0963 12.0625 21.0107L12.5 21H21.5C23.3538 21.0001 25.0682 21.5949 26.4648 22.6025C27.4384 20.9613 28 19.0467 28 17C28 10.9249 23.0751 6 17 6C15.5394 6 14.1475 6.28375 12.875 6.79883C12.3631 7.00602 11.7805 6.75899 11.5732 6.24707C11.3662 5.73521 11.6132 5.1525 12.125 4.94531C13.6318 4.33541 15.2779 4 17 4ZM28 27C28.5523 27 29 27.4477 29 28C29 28.5523 28.5523 29 28 29C27.4477 29 27 28.5523 27 28C27 27.4477 27.4477 27 28 27ZM12.5 23C11.0841 23.0001 9.77457 23.4539 8.70703 24.2227C10.7236 26.5361 13.69 28 17 28C20.3098 28 23.2754 26.5358 25.292 24.2227C24.2247 23.4541 22.9157 23.0001 21.5 23H12.5ZM17 9C19.7614 9 22 11.2386 22 14C22 16.7614 19.7614 19 17 19C14.2386 19 12 16.7614 12 14C12 11.2386 14.2386 9 17 9ZM17 11C15.3431 11 14 12.3431 14 14C14 15.6569 15.3431 17 17 17C18.6569 17 20 15.6569 20 14C20 12.3431 18.6569 11 17 11Z" fill="white"/>
</svg>
